# xmcd
#
# Track frame offsets: 
#        150
#        14911
#        27489
#        42455
#        53082
#        72873
#        86917
#        101036
#        119999
#        137519
#        149468
#        164508
#        184370
#        201627
#
# Disc length: 2822 seconds
#
# Revision: 0
# Processed by: cddbd v1.5.2PL0 Copyright (c) Steve Scherf et al.
# Submitted via: ExactAudioCopy v1.0b2
#
DISCID=e70b040e
DTITLE=Tex - Ready
DYEAR=1998
DGENRE=Blues
TTITLE0=Blues 's Gonna Make It
TTITLE1=You're So lazy
TTITLE2=Little Mistreater
TTITLE3=Taratata Taa
TTITLE4=My Love Song
TTITLE5=With A Kiss From My Baby
TTITLE6=Gotta be Your Lover
TTITLE7=Dear Missy Jones
TTITLE8=Lady
TTITLE9=Missy Daisy
TTITLE10=Treat Me Like A Man
TTITLE11=How Many Years
TTITLE12=Not A Song For You
TTITLE13=Alamo
EXTD=
EXTT0=
EXTT1=
EXTT2=
EXTT3=
EXTT4=
EXTT5=
EXTT6=
EXTT7=
EXTT8=
EXTT9=
EXTT10=
EXTT11=
EXTT12=
EXTT13=
PLAYORDER=
